<?xml version="1.0" encoding="UTF-8"?><svg id="Artwork_Layer" xmlns="http://www.w3.org/2000/svg" viewBox="0 0 1150.91 1100"><defs><style>.cls-1{fill:#e00800;stroke-width:0px;}</style></defs><path class="cls-1" d="M268.95,857.34c9.01,0,16.13-3.63,19.18-10.9h17c-3.63,12.5-15.26,25.29-35.46,25.29-25.14,0-39.53-19.19-39.53-41.57,0-23.54,16.13-40.26,38.37-40.26,23.98,0,38.95,19.48,37.5,45.78h-58.28c1.16,14.53,11.34,21.65,21.22,21.65ZM288.42,823.04c-.44-12.21-9.74-19.62-19.91-19.62-8.14,0-19.33,4.8-20.78,19.62h40.69Z"/><path class="cls-1" d="M361.23,789.9c18.89,0,26.6,12.21,26.6,30.81v49.12h-17.29v-44.91c0-10.61-1.6-20.93-14.82-20.93s-18.17,10.17-18.17,24.27v41.57h-17.3v-78.19h17.3v10.9c4.51-8.14,12.79-12.65,23.69-12.65Z"/><path class="cls-1" d="M425.61,771.01v20.64h15.7v12.5h-15.7v42.58c0,7.99,1.89,9.88,9.3,9.88h6.25v13.23h-12.79c-16.71,0-20.06-4.51-20.06-20.49v-45.2h-11.63v-12.5h11.63v-20.64h17.3Z"/><path class="cls-1" d="M488.83,857.34c9.01,0,16.13-3.63,19.18-10.9h17c-3.63,12.5-15.26,25.29-35.46,25.29-25.14,0-39.53-19.19-39.53-41.57,0-23.54,16.13-40.26,38.37-40.26,23.98,0,38.95,19.48,37.5,45.78h-58.28c1.16,14.53,11.34,21.65,21.22,21.65ZM508.31,823.04c-.44-12.21-9.74-19.62-19.91-19.62-8.14,0-19.33,4.8-20.78,19.62h40.69Z"/><path class="cls-1" d="M574.58,808.79c-10.9,0-17.15,4.36-17.15,20.06v40.98h-17.3v-78.19h17v13.95c4.21-8.72,11.77-13.95,21.22-14.1,1.31,0,3.2.15,4.51.29v17.44c-2.91-.29-5.67-.44-8.28-.44Z"/><path class="cls-1" d="M611.06,802.11c4.65-7.7,12.79-12.21,23.25-12.21,19.04,0,33.57,15.84,33.57,40.84s-14.53,40.99-33.57,40.99c-10.46,0-18.6-4.51-23.25-12.21v35.75h-17.3v-103.63h17.3v10.46ZM649.86,830.74c0-16.42-7.27-26.74-19.33-26.74-11.34,0-20.2,8.72-20.2,26.74s8.87,26.89,20.2,26.89c12.06,0,19.33-10.32,19.33-26.89Z"/><path class="cls-1" d="M716.42,808.79c-10.9,0-17.15,4.36-17.15,20.06v40.98h-17.3v-78.19h17v13.95c4.21-8.72,11.77-13.95,21.22-14.1,1.31,0,3.2.15,4.51.29v17.44c-2.91-.29-5.67-.44-8.28-.44Z"/><path class="cls-1" d="M752.9,781.91h-17.3v-17.44h17.3v17.44ZM752.9,869.83h-17.3v-78.19h17.3v78.19Z"/><path class="cls-1" d="M799.84,803.12c-7.56,0-14.53,3.34-14.53,8.57s3.78,7.99,10.46,9.3l11.05,2.18c15.84,3.05,27.9,7.99,27.9,23.25,0,16.28-15.41,25.29-33.14,25.29-19.18,0-31.97-10.9-33.86-25.73h16.86c1.6,7.99,7.41,12.64,17.59,12.64,9.01,0,15.7-3.78,15.7-10.17s-5.81-9.3-13.52-10.75l-11.77-2.33c-13.23-2.62-23.54-8.57-23.54-22.82s14.82-22.67,31.83-22.67c15.26,0,29.21,7.41,32.41,23.11h-16.28c-1.89-7.12-8.43-9.88-17.15-9.88Z"/><path class="cls-1" d="M883.12,857.34c9.01,0,16.13-3.63,19.18-10.9h17c-3.63,12.5-15.26,25.29-35.46,25.29-25.14,0-39.53-19.19-39.53-41.57,0-23.54,16.13-40.26,38.37-40.26,23.98,0,38.95,19.48,37.5,45.78h-58.28c1.16,14.53,11.34,21.65,21.22,21.65ZM902.6,823.04c-.44-12.21-9.74-19.62-19.91-19.62-8.14,0-19.33,4.8-20.78,19.62h40.69Z"/><path class="cls-1" d="M815.98,575.16c24.06-42.38,38.43-90.14,43.45-136.47h-74.34c-1.8,28.73-7.54,57.82-17.24,83.68-9.7,25.5-22.27,48.12-38.43,67.16h0c-24.06,28.01-55.31,45.97-90.5,45.97-41.66,0-70.39-17.96-81.52-47.76h-79.73c-12.93,30.89-43.45,46.69-81.88,46.69-42.38,0-85.83-30.53-90.5-92.66h248.88c6.46-30.53,30.53-53.51,69.67-68.24,0,0,36.27-13.29,72.19-28.73h0c49.56-22.98,86.91-63.93,86.91-116,0-73.98-63.21-99.48-120.31-99.48-72.19,0-125.34,37.71-125.34,98.04,0,35.55,19.39,68.95,47.76,102.35-15.08,5.39-29.45,12.21-42.74,20.83-22.98-63.57-75.78-104.51-147.96-104.51-95.17,0-163.76,71.47-163.76,172.02s61.41,177.41,168.79,177.41c49.2,0,86.55-17.96,112.41-43.1,26.22,26.93,65.72,43.1,114.2,43.1,59.62,0,108.1-23.7,145.45-60.33l47.76,52.07h101.28l-104.51-112.05ZM662.63,285.7c27.29,0,49.56,15.44,49.56,45.97,0,28.01-16.88,55.31-54.59,72.19l-.72-.72c-22.27-23.7-43.45-51-43.45-76.85.36-25.86,23.34-40.58,49.2-40.58ZM393.64,404.21c43.45,0,83.32,31.6,85.11,83.68h-173.82c6.11-63.21,53.87-83.68,88.71-83.68Z"/></svg>