<?xml version="1.0" encoding="UTF-8"?>
<svg id="Layer_1" xmlns="http://www.w3.org/2000/svg" version="1.1" viewBox="0 0 1150.9 1100">
  <!-- Generator: Adobe Illustrator 29.0.1, SVG Export Plug-In . SVG Version: 2.1.0 Build 192)  -->
  <defs>
    <style>
      .st0 {
        fill: #4b0f1e;
      }
    </style>
  </defs>
  <g id="Artwork_Layer">
    <path class="st0" d="M269,857.3c9,0,16.1-3.6,19.2-10.9h17c-3.6,12.5-15.3,25.3-35.5,25.3s-39.5-19.2-39.5-41.6,16.1-40.3,38.4-40.3,39,19.5,37.5,45.8h-58.3c1.2,14.5,11.3,21.7,21.2,21.7h0ZM288.4,823c-.4-12.2-9.7-19.6-19.9-19.6s-19.3,4.8-20.8,19.6h40.7Z"/>
    <path class="st0" d="M361.2,789.9c18.9,0,26.6,12.2,26.6,30.8v49.1h-17.3v-44.9c0-10.6-1.6-20.9-14.8-20.9s-18.2,10.2-18.2,24.3v41.6h-17.3v-78.2h17.3v10.9c4.5-8.1,12.8-12.7,23.7-12.7h0Z"/>
    <path class="st0" d="M425.6,771v20.6h15.7v12.5h-15.7v42.6c0,8,1.9,9.9,9.3,9.9h6.2v13.2h-12.8c-16.7,0-20.1-4.5-20.1-20.5v-45.2h-11.6v-12.5h11.6v-20.6h17.4Z"/>
    <path class="st0" d="M488.8,857.3c9,0,16.1-3.6,19.2-10.9h17c-3.6,12.5-15.3,25.3-35.5,25.3s-39.5-19.2-39.5-41.6,16.1-40.3,38.4-40.3,39,19.5,37.5,45.8h-58.3c1.2,14.5,11.3,21.7,21.2,21.7h0ZM508.3,823c-.4-12.2-9.7-19.6-19.9-19.6s-19.3,4.8-20.8,19.6h40.7,0Z"/>
    <path class="st0" d="M574.6,808.8c-10.9,0-17.2,4.4-17.2,20.1v41h-17.3v-78.2h17v14c4.2-8.7,11.8-14,21.2-14.1,1.3,0,3.2.2,4.5.3v17.4c-2.9-.3-5.7-.4-8.3-.4h0Z"/>
    <path class="st0" d="M611.1,802.1c4.7-7.7,12.8-12.2,23.2-12.2,19,0,33.6,15.8,33.6,40.8s-14.5,41-33.6,41-18.6-4.5-23.2-12.2v35.8h-17.3v-103.6h17.3v10.5h0ZM649.9,830.7c0-16.4-7.3-26.7-19.3-26.7s-20.2,8.7-20.2,26.7,8.9,26.9,20.2,26.9,19.3-10.3,19.3-26.9Z"/>
    <path class="st0" d="M716.4,808.8c-10.9,0-17.2,4.4-17.2,20.1v41h-17.3v-78.2h17v14c4.2-8.7,11.8-14,21.2-14.1,1.3,0,3.2.2,4.5.3v17.4c-2.9-.3-5.7-.4-8.3-.4h0Z"/>
    <path class="st0" d="M752.9,781.9h-17.3v-17.4h17.3v17.4ZM752.9,869.8h-17.3v-78.2h17.3v78.2Z"/>
    <path class="st0" d="M799.8,803.1c-7.6,0-14.5,3.3-14.5,8.6s3.8,8,10.5,9.3l11,2.2c15.8,3,27.9,8,27.9,23.2s-15.4,25.3-33.1,25.3-32-10.9-33.9-25.7h16.9c1.6,8,7.4,12.6,17.6,12.6s15.7-3.8,15.7-10.2-5.8-9.3-13.5-10.8l-11.8-2.3c-13.2-2.6-23.5-8.6-23.5-22.8s14.8-22.7,31.8-22.7,29.2,7.4,32.4,23.1h-16.3c-1.9-7.1-8.4-9.9-17.2-9.9h0Z"/>
    <path class="st0" d="M883.1,857.3c9,0,16.1-3.6,19.2-10.9h17c-3.6,12.5-15.3,25.3-35.5,25.3s-39.5-19.2-39.5-41.6,16.1-40.3,38.4-40.3,39,19.5,37.5,45.8h-58.3c1.2,14.5,11.3,21.7,21.2,21.7h0ZM902.6,823c-.4-12.2-9.7-19.6-19.9-19.6s-19.3,4.8-20.8,19.6h40.7Z"/>
  </g>
  <path class="st0" d="M816,575.2c24.1-42.4,38.4-90.1,43.5-136.5h-74.3c-1.8,28.7-7.5,57.8-17.2,83.7-9.7,25.5-22.3,48.1-38.4,67.2h0c-24.1,28-55.3,46-90.5,46s-70.4-18-81.5-47.8h-79.7c-12.9,30.9-43.5,46.7-81.9,46.7s-85.8-30.5-90.5-92.7h248.9c6.5-30.5,30.5-53.5,69.7-68.2,0,0,36.3-13.3,72.2-28.7h0c49.6-23,86.9-63.9,86.9-116,0-74-63.2-99.5-120.3-99.5s-125.3,37.7-125.3,98,19.4,68.9,47.8,102.4c-15.1,5.4-29.5,12.2-42.7,20.8-23-63.6-75.8-104.5-148-104.5s-163.8,71.5-163.8,172,61.4,177.4,168.8,177.4,86.6-18,112.4-43.1c26.2,26.9,65.7,43.1,114.2,43.1s108.1-23.7,145.5-60.3l47.8,52.1h101.3l-104.5-112h0ZM662.6,285.7c27.3,0,49.6,15.4,49.6,46s-16.9,55.3-54.6,72.2l-.7-.7c-22.3-23.7-43.5-51-43.5-76.9.4-25.9,23.3-40.6,49.2-40.6h0ZM393.6,404.2c43.5,0,83.3,31.6,85.1,83.7h-173.8c6.1-63.2,53.9-83.7,88.7-83.7h0Z"/>
</svg>