<?xml version="1.0" encoding="UTF-8"?><svg id="Layer_1" xmlns="http://www.w3.org/2000/svg" viewBox="0 0 266 142"><g><path d="M88.38,69.54c-.11-3.03-2.41-4.88-4.94-4.88-2.02,0-4.79,1.19-5.15,4.88h10.09Zm-4.84,8.52c2.23,0,4-.9,4.76-2.71h4.22c-.9,3.1-3.78,6.28-8.79,6.28-6.24,0-9.8-4.77-9.8-10.32,0-5.85,4-10,9.51-10,5.95,0,9.66,4.84,9.3,11.37h-14.45c.29,3.61,2.82,5.38,5.26,5.38" style="fill:#e00700;"/><path d="M105.58,61.31c4.68,0,6.59,3.03,6.59,7.65v12.2h-4.29v-11.16c0-2.63-.39-5.2-3.67-5.2s-4.5,2.53-4.5,6.03v10.32h-4.29v-19.42h4.29v2.71c1.12-2.02,3.17-3.14,5.87-3.14" style="fill:#e00700;"/><path d="M120.71,56.62v5.13h3.89v3.1h-3.89v10.58c0,1.99,.47,2.45,2.31,2.45h1.55v3.29h-3.17c-4.14,0-4.97-1.12-4.97-5.09v-11.24h-2.88v-3.1h2.88v-5.13h4.29Z" style="fill:#e00700;"/><path d="M139.77,69.54c-.11-3.03-2.41-4.88-4.94-4.88-2.02,0-4.79,1.19-5.15,4.88h10.09Zm-4.84,8.52c2.23,0,4-.9,4.76-2.71h4.22c-.9,3.1-3.78,6.28-8.79,6.28-6.24,0-9.8-4.77-9.8-10.32,0-5.85,4-10,9.51-10,5.95,0,9.66,4.84,9.3,11.37h-14.45c.29,3.61,2.82,5.38,5.26,5.38" style="fill:#e00700;"/><path d="M155.36,66c-2.71,0-4.25,1.08-4.25,4.98v10.18h-4.29v-19.42h4.22v3.47c1.04-2.17,2.91-3.47,5.26-3.5,.33,0,.79,.04,1.12,.07v4.33c-.72-.07-1.41-.11-2.05-.11" style="fill:#e00700;"/><path d="M173.16,71.45c0-4.08-1.8-6.64-4.79-6.64-2.81,0-5.01,2.17-5.01,6.64s2.2,6.68,5.01,6.68c2.98,0,4.79-2.56,4.79-6.68m-9.62-7.11c1.15-1.91,3.17-3.03,5.77-3.03,4.72,0,8.32,3.94,8.32,10.14s-3.6,10.18-8.32,10.18c-2.59,0-4.61-1.12-5.77-3.03v8.88h-4.29v-25.74h4.29v2.6Z" style="fill:#e00700;"/><path d="M188.95,66c-2.71,0-4.25,1.08-4.25,4.98v10.18h-4.29v-19.42h4.22v3.47c1.04-2.17,2.91-3.47,5.26-3.5,.32,0,.79,.04,1.12,.07v4.33c-.72-.07-1.41-.11-2.06-.11" style="fill:#e00700;"/></g><path d="M197.14,81.17h-4.29v-19.43h4.29v19.43Zm0-21.85h-4.29v-4.33h4.29v4.33Z" style="fill:#e00700;"/><g><path d="M207.89,64.6c-1.87,0-3.6,.83-3.6,2.13s.94,1.99,2.59,2.31l2.74,.54c3.93,.76,6.92,1.98,6.92,5.78,0,4.04-3.82,6.28-8.22,6.28-4.75,0-7.93-2.71-8.39-6.39h4.18c.4,1.99,1.84,3.14,4.37,3.14,2.23,0,3.89-.94,3.89-2.53s-1.44-2.31-3.35-2.67l-2.91-.58c-3.28-.65-5.84-2.13-5.84-5.67s3.68-5.63,7.89-5.63c3.78,0,7.24,1.84,8.04,5.74h-4.04c-.48-1.77-2.1-2.45-4.26-2.45" style="fill:#e00700;"/><path d="M232.47,69.54c-.11-3.03-2.42-4.88-4.94-4.88-2.02,0-4.79,1.19-5.15,4.88h10.09Zm-4.83,8.52c2.23,0,4-.9,4.76-2.71h4.22c-.9,3.1-3.78,6.28-8.79,6.28-6.24,0-9.8-4.77-9.8-10.32,0-5.85,4-10,9.51-10,5.95,0,9.66,4.84,9.3,11.37h-14.45c.29,3.61,2.81,5.38,5.26,5.38" style="fill:#e00700;"/><path d="M38.67,64.65c2.52,0,4.83,1.84,4.94,4.87h-10.09c.36-3.67,3.14-4.86,5.16-4.86h0Zm15.63-6.9c1.59,0,2.89,.9,2.89,2.67,0,1.62-.97,3.21-3.17,4.18l-.04-.04c-1.3-1.37-2.52-2.96-2.52-4.47,0-1.47,1.34-2.34,2.86-2.34h0Zm8.91,16.85c1.38-2.44,2.24-5.15,2.53-7.94h-4.32c-.1,1.66-.44,3.3-1.01,4.87-.51,1.42-1.27,2.74-2.24,3.9-1.41,1.62-3.21,2.67-5.27,2.67-2.43,0-4.1-1.04-4.73-2.78h-4.63c-.76,1.8-2.53,2.71-4.76,2.71-2.45,0-4.98-1.77-5.27-5.37h14.47c.37-1.78,1.77-3.1,4.04-3.96,0,0,2.1-.78,4.18-1.67,2.89-1.33,5.05-3.71,5.05-6.74,0-4.29-3.68-5.77-7-5.77-4.18,0-7.28,2.2-7.28,5.7,0,2.06,1.12,4,2.78,5.95-.87,.31-1.71,.71-2.5,1.2-1.33-3.68-4.41-6.07-8.59-6.07-5.52,0-9.52,4.15-9.52,9.99s3.57,10.32,9.81,10.32c2.87,0,5.04-1.04,6.54-2.51,1.53,1.55,3.82,2.51,6.64,2.51,3.46,0,6.28-1.37,8.44-3.5l2.78,3.03h5.88l-6.03-6.52Z" style="fill:#e00700;"/></g></svg>