<svg xmlns="http://www.w3.org/2000/svg" viewBox="0 0 500 1440" width="500" height="1440"><g xmlns="http://www.w3.org/2000/svg" transform="matrix(0 1 -1 0 500 -0)"><g clip-path="url(#clip0_4701_925)"><rect width="1440" height="500" fill="#4B0F1E" /><path d="M603.446 99.4582C650.475 -161.468 890.42 -321.243 1151.09 -410.609C1162.99 -414.818 1174.92 -418.837 1186.9 -422.563C1186.9 -422.563 1189 -423.211 1191.97 -424.129C1192.42 -424.272 1192.86 -424.431 1193.31 -424.574L1193.34 -424.551L979.703 -633.936C703.166 -547.666 439.403 -384.878 389.838 -109.904C343.996 144.412 457.559 365.461 674.649 499.171C604.309 384.282 576.754 247.558 603.446 99.4638L603.446 99.4582Z" fill="url(#paint0_linear_4701_925)" /><path d="M1234.16 514.27C1431.7 597.827 1663.5 555.472 1837.35 450.293C1883.1 422.622 1924.56 388.164 1962.05 350.427L1749.58 139.969C1711.81 178.139 1669.94 212.979 1623.75 240.925C1452.76 344.365 1225.8 386.756 1030.43 308.653C1064.25 396.374 1134.84 472.256 1234.15 514.264L1234.16 514.27Z" fill="url(#paint1_linear_4701_925)" /><path d="M1963.19 349.336C1962.82 349.707 1962.42 350.055 1962.05 350.432L1970.82 359.121C1766.77 530.329 1503.66 639.094 1182.29 634.158C982.219 631.085 808.729 581.746 674.649 499.163C799.71 703.417 1060.53 838.369 1395.9 843.52C1731.26 848.671 1980.38 739.692 2184.43 568.484L1963.19 349.336Z" fill="#E00800" /><path d="M1151.09 -410.611C991.289 -354.098 842.56 -253.876 803.789 -98.5362C763.761 61.8569 850.419 232.945 1020.54 304.901C1023.8 306.28 1027.15 307.34 1030.43 308.652C1006.31 246.109 1000.74 177.588 1017.4 110.826C1059.05 -56.076 1227.63 -159.415 1400.5 -213.202C1400.5 -213.202 1403.04 -213.982 1406.94 -215.19L1193.33 -424.553C1192.77 -424.379 1192.48 -424.289 1191.97 -424.131C1178.3 -419.85 1164.68 -415.269 1151.1 -410.611L1151.09 -410.611Z" fill="url(#paint2_linear_4701_925)" /><path d="M1970.82 359.123L1962.05 350.433C1924.56 388.165 1883.1 422.623 1837.35 450.299C1663.49 555.479 1431.69 597.828 1234.15 514.276C1134.84 472.268 1064.26 396.386 1030.43 308.665C1027.15 307.352 1023.81 306.293 1020.55 304.914C850.42 232.952 763.763 61.8694 803.791 -98.5237C842.562 -253.864 991.291 -354.086 1151.09 -410.598C890.419 -321.232 650.474 -161.451 603.445 99.4694C576.753 247.564 604.308 384.293 674.648 499.176C808.728 581.759 982.218 631.098 1182.29 634.171C1503.66 639.107 1766.77 530.342 1970.82 359.134L1970.82 359.123Z" fill="url(#paint3_linear_4701_925)" /></g><defs><linearGradient id="paint0_linear_4701_925" x1="481.346" y1="254.997" x2="842.18" y2="-551.524" gradientUnits="userSpaceOnUse"><stop stop-color="#E00800" /><stop offset="1" stop-color="#4B0F1E" /></linearGradient><linearGradient id="paint1_linear_4701_925" x1="1053.06" y1="174.55" x2="1726.47" y2="473.616" gradientUnits="userSpaceOnUse"><stop stop-color="#4B0F1E" /><stop offset="1" stop-color="#E00800" /></linearGradient><linearGradient id="paint2_linear_4701_925" x1="1228.47" y1="243.746" x2="1078" y2="-260.09" gradientUnits="userSpaceOnUse"><stop stop-color="#E00800" /><stop offset="1" stop-color="#4B0F1E" /></linearGradient><linearGradient id="paint3_linear_4701_925" x1="1277.52" y1="580.986" x2="1285.23" y2="79.2756" gradientUnits="userSpaceOnUse"><stop stop-color="#E00800" /><stop offset="1" stop-color="#4B0F1E" /></linearGradient><clipPath id="clip0_4701_925"><rect width="1440" height="500" fill="white" /></clipPath></defs></g></svg>